<svg width="104" height="93" viewBox="0 0 104 93" fill="none" xmlns="http://www.w3.org/2000/svg">
<g opacity="0.15">
<path d="M7.18555 67.3268L51.8745 41.6387L96.5339 67.3268L51.8597 93.0002L7.18555 67.3268Z" fill="#405A70"/>
</g>
<path d="M88.6973 21.1497L51.9189 0.0146484V46.3237L88.6973 67.4587V21.1497Z" fill="url(#paint0_linear_416_5620)"/>
<path d="M15.1553 21.1497L51.9336 0.0146484V46.3237L15.1553 67.4587V21.1497Z" fill="url(#paint1_linear_416_5620)"/>
<path d="M51.9336 42.2849L15.1553 21.1499V67.459L51.9336 88.594V42.2849Z" fill="url(#paint2_linear_416_5620)"/>
<path d="M51.9337 42.2845L15.1701 21.1348L15.0815 56.1346L51.8599 77.2843L51.9337 42.2845Z" fill="url(#paint3_linear_416_5620)"/>
<path d="M51.9336 42.2845L15.17 21.1348L0.5 38.0692L37.2636 59.2043L51.9336 42.2845Z" fill="#E9D4BA"/>
<path d="M51.9336 42.2849L88.7119 21.1499V67.459L51.9336 88.594V42.2849Z" fill="#B98E62"/>
<path d="M51.9041 42.2845L88.6676 21.1348L88.7562 67.4585L51.9779 88.5935L51.9041 42.2845Z" fill="url(#paint4_linear_416_5620)"/>
<path d="M51.9336 42.2849L88.7119 21.1499L103.5 37.9081L66.7217 59.0431L51.9336 42.2849Z" fill="#DDBD92"/>
<path d="M39.064 71.3657C38.8869 70.2641 37.721 68.8247 36.319 68.0169C36.1566 67.9141 35.9943 67.826 35.8319 67.7673C35.7139 67.7085 35.581 67.6645 35.463 67.6204C35.0645 67.4882 34.6955 67.4441 34.4003 67.4882C33.9723 67.547 33.6772 67.7966 33.5886 68.2079L36.2156 69.7207V72.7609C36.2156 72.9372 36.0681 73.0106 35.891 72.9078C35.7139 72.805 35.5663 72.57 35.5663 72.3938V72.291C35.5663 72.291 35.522 72.1441 35.4482 72.1147C35.3892 72.0853 35.3301 72.1147 35.3301 72.1735V72.2763C35.3301 72.5847 35.581 72.9813 35.8762 73.1575C36.1714 73.3338 36.4223 73.2163 36.4223 72.9078V69.8676L39.0493 71.3803L39.064 71.3657Z" fill="#7A5534"/>
<path d="M39.8167 76.4472L32.644 72.3054V64.8296L39.8167 68.9714V76.4472ZM32.9245 72.1732L39.5511 75.9919V69.0889L32.9245 65.2702V72.1732Z" fill="#7A5534"/>
<path d="M47.6092 80.9414L40.4365 76.7996V69.3237L47.6092 73.4655V80.9414ZM40.7169 76.6674L47.3435 80.4861V73.5831L40.7169 69.7644V76.6674Z" fill="#7A5534"/>
<path d="M45.3512 73.2598V75.1398C45.3512 75.7567 44.8641 75.977 44.2738 75.6392L43.831 75.3748C43.2407 75.037 42.7537 74.2586 42.7537 73.6417V71.7617L44.0672 72.5255L43.772 72.9073L44.3328 73.2304L43.5801 74.4789L44.8346 73.3039L44.259 72.9808L44.5542 72.8045L45.3512 73.2598Z" fill="#7A5534"/>
<path d="M44.2591 77.6661L43.8606 77.4311V75.0664L44.2591 75.3014V77.6661Z" fill="#7A5534"/>
<path d="M44.0524 77.3578L42.6946 77.02L45.3511 78.5622L44.0524 77.3578Z" fill="#7A5534"/>
<path d="M51.9483 0.425932L87.9739 21.1497L51.8892 41.8735L15.9078 21.135L51.9483 0.425932ZM51.9483 0L15.1699 21.135L51.8892 42.2994L88.7118 21.1497L51.9483 0Z" fill="#F2E6D5"/>
<defs>
<linearGradient id="paint0_linear_416_5620" x1="70.3081" y1="19.3872" x2="70.3081" y2="39.3619" gradientUnits="userSpaceOnUse">
<stop stop-color="#D4AC74"/>
<stop offset="1" stop-color="#B98E62"/>
</linearGradient>
<linearGradient id="paint1_linear_416_5620" x1="28.8365" y1="13.336" x2="36.3968" y2="46.4572" gradientUnits="userSpaceOnUse">
<stop stop-color="#B98E62"/>
<stop offset="1" stop-color="#7A5534"/>
</linearGradient>
<linearGradient id="paint2_linear_416_5620" x1="33.5444" y1="38.2753" x2="33.5444" y2="74.7439" gradientUnits="userSpaceOnUse">
<stop stop-color="#DDBD92"/>
<stop offset="1" stop-color="#D4AC74"/>
</linearGradient>
<linearGradient id="paint3_linear_416_5620" x1="39.1085" y1="41.1536" x2="25.2675" y2="61.2791" gradientUnits="userSpaceOnUse">
<stop stop-color="#66301E" stop-opacity="0.5"/>
<stop offset="1" stop-color="#B39065" stop-opacity="0"/>
</linearGradient>
<linearGradient id="paint4_linear_416_5620" x1="66.1166" y1="42.3579" x2="76.197" y2="72.6138" gradientUnits="userSpaceOnUse">
<stop stop-color="#66301E" stop-opacity="0.5"/>
<stop offset="1" stop-color="#B39065" stop-opacity="0"/>
</linearGradient>
</defs>
</svg>
