<svg width="254" height="52" viewBox="0 0 254 52" fill="none" xmlns="http://www.w3.org/2000/svg">
<path fill-rule="evenodd" clip-rule="evenodd" d="M148.114 22.9768L146.458 28.535H115.512L122.025 6.62061H134.094L129.237 22.9768H148.114Z" fill="#004B93"/>
<path fill-rule="evenodd" clip-rule="evenodd" d="M59.3968 16.3141H50.6766L52.3324 10.7911H60.9797C62.5615 10.7911 64.034 12.0379 63.5547 13.5702C63.1506 14.9946 61.9365 16.1355 59.3968 16.3141ZM64.8434 6.62134H41.4772L35.002 28.5353H47.0696L49.4249 20.4828H60.9796C67.5659 20.4828 73.5646 17.6679 74.7053 13.8189C75.661 10.6848 72.7906 6.62134 64.8434 6.62134Z" fill="#004B93"/>
<path fill-rule="evenodd" clip-rule="evenodd" d="M99.6512 16.3141H90.931L92.5874 10.7911H101.271C102.853 10.7911 104.288 12.0379 103.846 13.5702C103.405 14.9946 102.19 16.1355 99.6512 16.3141ZM105.097 6.62134H81.7322L75.2559 28.5353H87.3246L89.717 20.4828H101.271C107.821 20.4828 113.854 17.6679 114.995 13.8189C115.916 10.6848 113.046 6.62134 105.097 6.62134Z" fill="#004B93"/>
<path fill-rule="evenodd" clip-rule="evenodd" d="M28.8552 28.5354L30.6578 22.4783H3.50189L1.69922 28.5354H28.8552Z" fill="#004B93"/>
<path fill-rule="evenodd" clip-rule="evenodd" d="M33.1983 13.9259L34.339 10.1138H7.14608L6.04297 13.9259H33.1983Z" fill="#004B93"/>
<path fill-rule="evenodd" clip-rule="evenodd" d="M31.173 20.6968L32.6824 15.6726H5.52652L4.01758 20.6968H31.173Z" fill="#004B93"/>
<path fill-rule="evenodd" clip-rule="evenodd" d="M34.8526 8.36781L35.3678 6.62109H8.21239L7.69727 8.36781H34.8526Z" fill="#004B93"/>
<path d="M155.839 15.497H155.841V15.9188H155.839M152.526 14.1828C153.369 14.9944 154.538 15.497 155.839 15.497V15.9188C154.419 15.9183 153.142 15.3697 152.219 14.4806L152.526 14.1828ZM151.164 11.0048C151.164 12.2473 151.683 13.3707 152.526 14.1828L152.219 14.4806C151.296 13.592 150.729 12.3628 150.729 11.0048H151.164ZM151.164 11.0037H150.729V11.0027H151.164V11.0037ZM152.526 7.79581C151.683 8.61169 151.164 9.74406 151.164 11.0037H150.729C150.729 9.62753 151.296 8.39035 152.218 7.49696L152.526 7.79581ZM155.84 6.47628C154.539 6.4768 153.369 6.97832 152.526 7.79581L152.218 7.49696C153.141 6.60355 154.419 6.05497 155.84 6.05444V6.47628ZM155.841 6.47628H155.84V6.05444H155.841V6.47628ZM155.841 6.47628H155.84V6.05444H155.841V6.47628ZM159.141 7.79526C158.294 6.97832 157.124 6.4768 155.841 6.47628V6.05444C157.243 6.05497 158.521 6.60353 159.448 7.49641L159.141 7.79526ZM160.516 11.0037C160.516 9.74356 159.989 8.61169 159.141 7.79526L159.448 7.49641C160.375 8.39035 160.952 9.62751 160.952 11.0037H160.516ZM160.516 11.0037H160.952V11.0048H160.516V11.0037ZM159.142 14.1817C159.989 13.3701 160.516 12.2468 160.516 11.0048H160.952C160.952 12.3629 160.375 13.592 159.448 14.48L159.142 14.1817ZM155.841 15.497C157.125 15.497 158.294 14.9944 159.142 14.1817L159.448 14.48C158.521 15.3697 157.243 15.9183 155.841 15.9188V15.497Z" fill="#004B93"/>
<path fill-rule="evenodd" clip-rule="evenodd" d="M154.441 10.5768H156.355C156.98 10.5768 157.642 10.4346 157.937 9.61442C158.23 8.75951 157.532 8.68893 157.126 8.68893H155.067L154.441 10.5768ZM153.411 13.5703H152.602L154.441 8.04736H157.275C158.305 8.04736 159.225 8.36815 158.82 9.54384C158.562 10.3629 157.974 10.6474 157.532 10.8623C157.826 11.0045 158.121 11.1473 157.9 11.8958L157.642 12.8929C157.532 13.2137 157.532 13.3201 157.753 13.4634L157.716 13.5703H156.686C156.686 13.2137 156.942 12.3941 157.016 12.1797C157.164 11.753 157.238 11.2184 156.245 11.2184H154.22L153.411 13.5703Z" fill="#004B93"/>
<path d="M252.424 14.1272H184.938V28.535H252.424V14.1272Z" fill="#FFCC00"/>
<path fill-rule="evenodd" clip-rule="evenodd" d="M196.799 16.179L194.648 19.033H206.413C206.992 19.033 206.992 19.2442 206.701 19.6162C206.413 20.0149 205.905 20.693 205.614 21.0681C205.445 21.2778 205.179 21.6283 206.099 21.6283H210.905C210.905 21.6283 211.677 20.6241 212.33 19.7578C213.2 18.612 212.403 16.179 209.237 16.179H196.799Z" fill="#D40511"/>
<path fill-rule="evenodd" clip-rule="evenodd" d="M193.779 25.4169L198.103 19.7334H203.488C204.068 19.7334 204.068 19.9454 203.778 20.3181C203.488 20.7161 202.981 21.3713 202.691 21.7692C202.523 21.9797 202.257 22.3302 203.175 22.3302H210.371C209.767 23.1254 207.836 25.417 204.334 25.417L193.779 25.4169Z" fill="#D40511"/>
<path fill-rule="evenodd" clip-rule="evenodd" d="M218.586 22.3293L216.243 25.4168H210.035L212.379 22.3293H218.586Z" fill="#D40511"/>
<path fill-rule="evenodd" clip-rule="evenodd" d="M232.206 16.179H226.023L223.633 19.3131H220.879L223.246 16.179H217.062L212.908 21.6283H228.076L232.206 16.179Z" fill="#D40511"/>
<path fill-rule="evenodd" clip-rule="evenodd" d="M184.939 23.5469H194.069L193.561 24.2013H184.939" fill="#D40511"/>
<path fill-rule="evenodd" clip-rule="evenodd" d="M184.939 22.3293H194.988L194.479 22.9852H184.939" fill="#D40511"/>
<path fill-rule="evenodd" clip-rule="evenodd" d="M184.939 24.7861H193.127L192.645 25.4176H184.939" fill="#D40511"/>
<path fill-rule="evenodd" clip-rule="evenodd" d="M227.545 22.3293L225.178 25.4168H218.994L221.338 22.3293H227.545Z" fill="#D40511"/>
<path fill-rule="evenodd" clip-rule="evenodd" d="M252.424 24.2017H243.342L243.825 23.5481H252.424" fill="#D40511"/>
<path fill-rule="evenodd" clip-rule="evenodd" d="M252.425 25.4171H242.4L242.909 24.7864H252.425" fill="#D40511"/>
<path fill-rule="evenodd" clip-rule="evenodd" d="M244.768 22.3293H252.424V22.9852H244.26L244.768 22.3293Z" fill="#D40511"/>
<path fill-rule="evenodd" clip-rule="evenodd" d="M240.783 16.179L236.653 21.6283H230.084L234.237 16.179H240.783Z" fill="#D40511"/>
<path fill-rule="evenodd" clip-rule="evenodd" d="M243.632 22.3293L241.265 25.4168H231.338C228.802 25.4168 228.101 24.2489 228.874 23.2187C229.091 22.9393 229.551 22.3293 229.551 22.3293H243.632Z" fill="#D40511"/>
<path d="M185.027 10.1456L186.522 5.80273H187.467L188.962 10.1456H188.33L187.942 9.0204H186.026L185.639 10.1456H185.027ZM186.937 6.34228L186.196 8.52031H187.773L187.032 6.34228H186.937Z" fill="black"/>
<path d="M191.943 10.2246C191.649 10.2246 191.391 10.1577 191.169 10.0239C190.947 9.89014 190.775 9.70376 190.652 9.46462C190.53 9.22556 190.469 8.94591 190.469 8.6256V8.37559C190.469 8.05539 190.53 7.77574 190.652 7.53657C190.775 7.29761 190.947 7.11113 191.169 6.97732C191.391 6.84352 191.649 6.77661 191.943 6.77661C192.401 6.77661 192.786 6.939 193.099 7.26357L192.779 7.6255C192.557 7.3974 192.292 7.2833 191.984 7.2833C191.694 7.2833 191.467 7.38317 191.301 7.58268C191.136 7.78239 191.053 8.0532 191.053 8.39532V8.6059C191.053 8.94809 191.136 9.21901 191.301 9.41854C191.467 9.61825 191.694 9.71792 191.984 9.71792C192.315 9.71792 192.591 9.60392 192.813 9.37582L193.132 9.73764C192.824 10.0624 192.428 10.2246 191.943 10.2246Z" fill="black"/>
<path d="M194.988 10.2246C194.671 10.2246 194.399 10.1577 194.173 10.0239C193.946 9.89014 193.773 9.70376 193.653 9.46462C193.533 9.22556 193.473 8.94591 193.473 8.6256V8.37559C193.473 8.05539 193.533 7.77574 193.653 7.53657C193.773 7.29761 193.946 7.11113 194.173 6.97732C194.399 6.84352 194.671 6.77661 194.988 6.77661C195.305 6.77661 195.577 6.84352 195.803 6.97732C196.03 7.11113 196.203 7.29761 196.323 7.53657C196.443 7.77571 196.503 8.05539 196.503 8.37559V8.6256C196.503 8.94588 196.443 9.22556 196.323 9.46462C196.203 9.70376 196.03 9.89014 195.803 10.0239C195.577 10.1577 195.305 10.2246 194.988 10.2246ZM194.988 9.72447C195.278 9.72447 195.507 9.62688 195.674 9.43164C195.842 9.2365 195.926 8.96119 195.926 8.60587V8.3953C195.926 8.03995 195.842 7.76477 195.674 7.56953C195.507 7.37438 195.278 7.2767 194.988 7.2767C194.698 7.2767 194.469 7.37436 194.302 7.56953C194.134 7.76477 194.05 8.03997 194.05 8.3953V8.60587C194.05 8.96122 194.134 9.2365 194.302 9.43164C194.469 9.62688 194.698 9.72447 194.988 9.72447Z" fill="black"/>
<path d="M197.211 10.1457V6.8556H197.748V7.48734C197.847 7.28991 197.988 7.12441 198.169 6.99051C198.35 6.85678 198.579 6.78979 198.855 6.78979C199.1 6.78979 199.309 6.85023 199.484 6.97081C199.658 7.09148 199.782 7.27018 199.854 7.50706C199.958 7.30964 200.101 7.14087 200.282 7.0004C200.463 6.8601 200.699 6.78982 200.989 6.78982C201.324 6.78982 201.59 6.89744 201.787 7.11229C201.984 7.32723 202.083 7.64754 202.083 8.07296V10.1457H201.505V8.14532C201.505 7.86018 201.445 7.64631 201.325 7.50375C201.205 7.36127 201.032 7.28988 200.805 7.28988C200.592 7.28988 200.413 7.34693 200.269 7.46093C200.124 7.57513 200.013 7.70446 199.936 7.84923V10.1457H199.358V8.14532C199.358 7.86018 199.298 7.64631 199.178 7.50375C199.058 7.36127 198.885 7.28988 198.658 7.28988C198.445 7.28988 198.266 7.34693 198.121 7.46093C197.976 7.57513 197.865 7.70446 197.788 7.84923V10.1457H197.211Z" fill="black"/>
<path d="M202.945 11.3959V6.8556H203.482V7.48734C203.6 7.26361 203.755 7.09148 203.947 6.97081C204.14 6.85023 204.359 6.78979 204.603 6.78979C204.861 6.78979 205.088 6.8556 205.283 6.98722C205.477 7.11884 205.628 7.30304 205.735 7.53999C205.841 7.77685 205.894 8.05544 205.894 8.37562V8.62564C205.894 8.94593 205.841 9.22442 205.735 9.46138C205.628 9.69823 205.477 9.88242 205.283 10.014C205.088 10.1457 204.861 10.2115 204.603 10.2115C204.372 10.2115 204.164 10.1577 203.978 10.0503C203.792 9.94286 203.641 9.78823 203.523 9.58634V11.3959H202.945ZM204.413 7.28988C204.227 7.28988 204.056 7.33925 203.9 7.43794C203.744 7.53663 203.618 7.67379 203.523 7.84923V9.15203C203.618 9.32755 203.744 9.46465 203.9 9.56332C204.056 9.66198 204.227 9.71138 204.413 9.71138C204.694 9.71138 204.915 9.61379 205.076 9.41855C205.236 9.22341 205.317 8.95249 205.317 8.6059V8.39534C205.317 8.04885 205.236 7.77794 205.076 7.58268C204.915 7.38754 204.694 7.28988 204.413 7.28988Z" fill="black"/>
<path d="M207.294 10.2114C206.99 10.2114 206.743 10.1226 206.553 9.94488C206.363 9.76726 206.268 9.53588 206.268 9.25073C206.268 8.93052 206.388 8.67725 206.628 8.49067C206.868 8.30429 207.194 8.2111 207.606 8.2111H208.374V8.10576C208.374 7.54869 208.107 7.27012 207.572 7.27012C207.418 7.27012 207.267 7.29761 207.117 7.35237C206.968 7.40724 206.838 7.48509 206.73 7.58594L206.431 7.21089C206.743 6.92135 207.137 6.77661 207.613 6.77661C208.487 6.77661 208.925 7.21975 208.925 8.10578V9.38237C208.925 9.61494 209.02 9.73104 209.21 9.73104C209.228 9.73104 209.247 9.73004 209.268 9.72775C209.288 9.72565 209.314 9.72236 209.346 9.71789V10.1917C209.269 10.2049 209.176 10.2114 209.067 10.2114C208.659 10.2114 208.437 10.0097 208.401 9.60608C208.279 9.79914 208.123 9.94817 207.932 10.0535C207.742 10.1587 207.529 10.2114 207.294 10.2114ZM207.464 9.73102C207.853 9.73102 208.157 9.54682 208.374 9.17835V8.64538H207.661C207.407 8.64538 207.208 8.69696 207.063 8.80001C206.918 8.90307 206.845 9.04455 206.845 9.22435C206.845 9.37798 206.901 9.50074 207.012 9.59282C207.123 9.68501 207.273 9.73102 207.464 9.73102Z" fill="black"/>
<path d="M209.855 10.1457V6.8556H210.392V7.48734C210.496 7.29438 210.639 7.12981 210.82 6.9938C211.001 6.85789 211.232 6.78979 211.513 6.78979C211.853 6.78979 212.124 6.89742 212.325 7.11226C212.527 7.32721 212.628 7.64751 212.628 8.07294V10.1456H212.05V8.1453C212.05 7.86015 211.987 7.64628 211.86 7.50372C211.733 7.36124 211.554 7.28986 211.323 7.28986C211.106 7.28986 210.923 7.34691 210.776 7.46091C210.629 7.57511 210.514 7.70444 210.433 7.84921V10.1456L209.855 10.1457Z" fill="black"/>
<path d="M213.933 11.3957L214.395 10.1455H214.143L212.988 6.85547H213.613L214.544 9.64543H214.626L215.564 6.85547H216.168L214.524 11.3957H213.933Z" fill="black"/>
<path d="M219.185 10.2246C218.868 10.2246 218.596 10.1577 218.37 10.0239C218.143 9.89014 217.97 9.70376 217.85 9.46462C217.73 9.22556 217.67 8.94591 217.67 8.6256V8.37559C217.67 8.05539 217.73 7.77574 217.85 7.53657C217.97 7.29761 218.143 7.11113 218.37 6.97732C218.596 6.84352 218.868 6.77661 219.185 6.77661C219.502 6.77661 219.774 6.84352 220.001 6.97732C220.227 7.11113 220.4 7.29761 220.52 7.53657C220.64 7.77571 220.701 8.05539 220.701 8.37559V8.6256C220.701 8.94588 220.64 9.22556 220.52 9.46462C220.4 9.70376 220.227 9.89014 220.001 10.0239C219.774 10.1577 219.502 10.2246 219.185 10.2246ZM219.185 9.72447C219.475 9.72447 219.704 9.62688 219.872 9.43164C220.039 9.2365 220.123 8.96119 220.123 8.60587V8.3953C220.123 8.03995 220.039 7.76477 219.872 7.56953C219.704 7.37438 219.475 7.2767 219.185 7.2767C218.895 7.2767 218.666 7.37436 218.499 7.56953C218.331 7.76477 218.248 8.03997 218.248 8.3953V8.60587C218.248 8.96122 218.331 9.2365 218.499 9.43164C218.666 9.62688 218.895 9.72447 219.185 9.72447Z" fill="black"/>
<path d="M221.583 10.1455V7.32924H221.006V6.85543H221.583V6.66465C221.583 6.24789 221.682 5.94312 221.879 5.74999C222.076 5.55703 222.356 5.46045 222.718 5.46045C222.782 5.46045 222.839 5.46273 222.892 5.46702C222.944 5.47149 222.99 5.47807 223.031 5.48683V5.96711C222.931 5.95396 222.85 5.94739 222.786 5.94739C222.551 5.94739 222.387 6.00662 222.297 6.12501C222.206 6.24347 222.161 6.42996 222.161 6.68436V6.8554H223.038V7.32922H222.161V10.1455H221.583Z" fill="black"/>
<path d="M171.055 1.59155H170.492V34.9476H171.055V1.59155Z" fill="#004B93"/>
<path d="M4.79199 45.2881H2.20117V43.9277H4.79199C5.24316 43.9277 5.60775 43.8548 5.88574 43.709C6.16374 43.5632 6.36654 43.3626 6.49414 43.1074C6.6263 42.8477 6.69238 42.5514 6.69238 42.2188C6.69238 41.9043 6.6263 41.6104 6.49414 41.3369C6.36654 41.0589 6.16374 40.8356 5.88574 40.667C5.60775 40.4984 5.24316 40.4141 4.79199 40.4141H2.72754V49H1.01172V39.0469H4.79199C5.56217 39.0469 6.21615 39.1836 6.75391 39.457C7.29622 39.7259 7.70866 40.0996 7.99121 40.5781C8.27376 41.0521 8.41504 41.5944 8.41504 42.2051C8.41504 42.8477 8.27376 43.3991 7.99121 43.8594C7.70866 44.3197 7.29622 44.6729 6.75391 44.9189C6.21615 45.165 5.56217 45.2881 4.79199 45.2881ZM13.7334 45.2881H11.1426V43.9277H13.7334C14.1846 43.9277 14.5492 43.8548 14.8271 43.709C15.1051 43.5632 15.3079 43.3626 15.4355 43.1074C15.5677 42.8477 15.6338 42.5514 15.6338 42.2188C15.6338 41.9043 15.5677 41.6104 15.4355 41.3369C15.3079 41.0589 15.1051 40.8356 14.8271 40.667C14.5492 40.4984 14.1846 40.4141 13.7334 40.4141H11.6689V49H9.95312V39.0469H13.7334C14.5036 39.0469 15.1576 39.1836 15.6953 39.457C16.2376 39.7259 16.6501 40.0996 16.9326 40.5781C17.2152 41.0521 17.3564 41.5944 17.3564 42.2051C17.3564 42.8477 17.2152 43.3991 16.9326 43.8594C16.6501 44.3197 16.2376 44.6729 15.6953 44.9189C15.1576 45.165 14.5036 45.2881 13.7334 45.2881ZM25.1289 47.6396V49H20.1318V47.6396H25.1289ZM20.6104 39.0469V49H18.8945V39.0469H20.6104ZM36.4561 47.6396V49H31.1719V47.6396H36.4561ZM31.6572 39.0469V49H29.9414V39.0469H31.6572ZM35.7656 43.2031V44.543H31.1719V43.2031H35.7656ZM36.4219 39.0469V40.4141H31.1719V39.0469H36.4219ZM41.0088 44.0918V45.4043H37.3926V44.0918H41.0088ZM45.4727 47.8242C45.7415 47.8242 45.9831 47.7718 46.1973 47.667C46.416 47.5576 46.5915 47.4072 46.7236 47.2158C46.8604 47.0244 46.9355 46.8034 46.9492 46.5527H48.501C48.4919 47.0312 48.3506 47.4665 48.0771 47.8584C47.8037 48.2503 47.4414 48.5625 46.9902 48.7949C46.5391 49.0228 46.04 49.1367 45.4932 49.1367C44.9281 49.1367 44.4359 49.041 44.0166 48.8496C43.5973 48.6536 43.2487 48.3848 42.9707 48.043C42.6927 47.7012 42.4831 47.307 42.3418 46.8604C42.2051 46.4137 42.1367 45.9352 42.1367 45.4248V45.1855C42.1367 44.6751 42.2051 44.1966 42.3418 43.75C42.4831 43.2988 42.6927 42.9023 42.9707 42.5605C43.2487 42.2188 43.5973 41.9521 44.0166 41.7607C44.4359 41.5648 44.9258 41.4668 45.4863 41.4668C46.0788 41.4668 46.5983 41.5853 47.0449 41.8223C47.4915 42.0547 47.8424 42.3805 48.0977 42.7998C48.3574 43.2145 48.4919 43.6976 48.501 44.249H46.9492C46.9355 43.9756 46.8672 43.7295 46.7441 43.5107C46.6257 43.2874 46.457 43.1097 46.2383 42.9775C46.0241 42.8454 45.7666 42.7793 45.4658 42.7793C45.1331 42.7793 44.8574 42.8477 44.6387 42.9844C44.4199 43.1165 44.249 43.2988 44.126 43.5312C44.0029 43.7591 43.9141 44.0166 43.8594 44.3037C43.8092 44.5863 43.7842 44.8802 43.7842 45.1855V45.4248C43.7842 45.7301 43.8092 46.0264 43.8594 46.3135C43.9095 46.6006 43.9961 46.8581 44.1191 47.0859C44.2467 47.3092 44.4199 47.4893 44.6387 47.626C44.8574 47.7581 45.1354 47.8242 45.4727 47.8242ZM49.4512 45.3838V45.2266C49.4512 44.6934 49.5286 44.1989 49.6836 43.7432C49.8385 43.2829 50.0618 42.8841 50.3535 42.5469C50.6497 42.2051 51.0098 41.9408 51.4336 41.7539C51.862 41.5625 52.3451 41.4668 52.8828 41.4668C53.4251 41.4668 53.9082 41.5625 54.332 41.7539C54.7604 41.9408 55.1227 42.2051 55.4189 42.5469C55.7152 42.8841 55.9408 43.2829 56.0957 43.7432C56.2507 44.1989 56.3281 44.6934 56.3281 45.2266V45.3838C56.3281 45.917 56.2507 46.4115 56.0957 46.8672C55.9408 47.3229 55.7152 47.7217 55.4189 48.0635C55.1227 48.4007 54.7627 48.665 54.3389 48.8564C53.915 49.0433 53.4342 49.1367 52.8965 49.1367C52.3542 49.1367 51.8688 49.0433 51.4404 48.8564C51.0166 48.665 50.6566 48.4007 50.3604 48.0635C50.0641 47.7217 49.8385 47.3229 49.6836 46.8672C49.5286 46.4115 49.4512 45.917 49.4512 45.3838ZM51.0986 45.2266V45.3838C51.0986 45.7165 51.1328 46.0309 51.2012 46.3271C51.2695 46.6234 51.3766 46.8831 51.5225 47.1064C51.6683 47.3298 51.8551 47.5052 52.083 47.6328C52.3109 47.7604 52.582 47.8242 52.8965 47.8242C53.2018 47.8242 53.4661 47.7604 53.6895 47.6328C53.9173 47.5052 54.1042 47.3298 54.25 47.1064C54.3958 46.8831 54.5029 46.6234 54.5713 46.3271C54.6442 46.0309 54.6807 45.7165 54.6807 45.3838V45.2266C54.6807 44.8984 54.6442 44.5885 54.5713 44.2969C54.5029 44.0007 54.3936 43.7386 54.2432 43.5107C54.0973 43.2829 53.9105 43.1051 53.6826 42.9775C53.4593 42.8454 53.1927 42.7793 52.8828 42.7793C52.5729 42.7793 52.304 42.8454 52.0762 42.9775C51.8529 43.1051 51.6683 43.2829 51.5225 43.5107C51.3766 43.7386 51.2695 44.0007 51.2012 44.2969C51.1328 44.5885 51.0986 44.8984 51.0986 45.2266ZM59.3564 43.1074V49H57.709V41.6035H59.2607L59.3564 43.1074ZM59.0898 45.0283L58.5293 45.0215C58.5293 44.5111 58.5931 44.0394 58.7207 43.6064C58.8483 43.1735 59.0352 42.7975 59.2812 42.4785C59.5273 42.1549 59.8327 41.9066 60.1973 41.7334C60.5664 41.5557 60.9925 41.4668 61.4756 41.4668C61.8128 41.4668 62.1204 41.5169 62.3984 41.6172C62.681 41.7129 62.9248 41.8656 63.1299 42.0752C63.3395 42.2848 63.499 42.5537 63.6084 42.8818C63.7223 43.21 63.7793 43.6064 63.7793 44.0713V49H62.1318V44.2148C62.1318 43.8548 62.0771 43.5723 61.9678 43.3672C61.863 43.1621 61.7103 43.0163 61.5098 42.9297C61.3138 42.8385 61.0791 42.793 60.8057 42.793C60.4958 42.793 60.2314 42.8522 60.0127 42.9707C59.7985 43.0892 59.623 43.251 59.4863 43.4561C59.3496 43.6611 59.2493 43.8981 59.1855 44.167C59.1217 44.4359 59.0898 44.723 59.0898 45.0283ZM63.6768 44.5908L62.9043 44.7617C62.9043 44.3151 62.9658 43.8936 63.0889 43.4971C63.2165 43.096 63.401 42.7451 63.6426 42.4443C63.8887 42.139 64.1917 41.8997 64.5518 41.7266C64.9118 41.5534 65.3242 41.4668 65.7891 41.4668C66.1673 41.4668 66.5046 41.5192 66.8008 41.624C67.1016 41.7243 67.3568 41.8838 67.5664 42.1025C67.776 42.3213 67.9355 42.6061 68.0449 42.957C68.1543 43.3034 68.209 43.7227 68.209 44.2148V49H66.5547V44.208C66.5547 43.8343 66.5 43.5449 66.3906 43.3398C66.2858 43.1348 66.1354 42.9935 65.9395 42.916C65.7435 42.834 65.5088 42.793 65.2354 42.793C64.9801 42.793 64.7546 42.8408 64.5586 42.9365C64.3672 43.0277 64.2054 43.1576 64.0732 43.3262C63.9411 43.4902 63.8408 43.6794 63.7725 43.8936C63.7087 44.1077 63.6768 44.3402 63.6768 44.5908ZM71.5518 43.1074V49H69.9043V41.6035H71.4561L71.5518 43.1074ZM71.2852 45.0283L70.7246 45.0215C70.7246 44.5111 70.7884 44.0394 70.916 43.6064C71.0436 43.1735 71.2305 42.7975 71.4766 42.4785C71.7227 42.1549 72.028 41.9066 72.3926 41.7334C72.7617 41.5557 73.1878 41.4668 73.6709 41.4668C74.0081 41.4668 74.3158 41.5169 74.5938 41.6172C74.8763 41.7129 75.1201 41.8656 75.3252 42.0752C75.5348 42.2848 75.6943 42.5537 75.8037 42.8818C75.9176 43.21 75.9746 43.6064 75.9746 44.0713V49H74.3271V44.2148C74.3271 43.8548 74.2725 43.5723 74.1631 43.3672C74.0583 43.1621 73.9056 43.0163 73.7051 42.9297C73.5091 42.8385 73.2744 42.793 73.001 42.793C72.6911 42.793 72.4268 42.8522 72.208 42.9707C71.9938 43.0892 71.8184 43.251 71.6816 43.4561C71.5449 43.6611 71.4447 43.8981 71.3809 44.167C71.3171 44.4359 71.2852 44.723 71.2852 45.0283ZM75.8721 44.5908L75.0996 44.7617C75.0996 44.3151 75.1611 43.8936 75.2842 43.4971C75.4118 43.096 75.5964 42.7451 75.8379 42.4443C76.084 42.139 76.387 41.8997 76.7471 41.7266C77.1071 41.5534 77.5195 41.4668 77.9844 41.4668C78.3626 41.4668 78.6999 41.5192 78.9961 41.624C79.2969 41.7243 79.5521 41.8838 79.7617 42.1025C79.9714 42.3213 80.1309 42.6061 80.2402 42.957C80.3496 43.3034 80.4043 43.7227 80.4043 44.2148V49H78.75V44.208C78.75 43.8343 78.6953 43.5449 78.5859 43.3398C78.4811 43.1348 78.3307 42.9935 78.1348 42.916C77.9388 42.834 77.7041 42.793 77.4307 42.793C77.1755 42.793 76.9499 42.8408 76.7539 42.9365C76.5625 43.0277 76.4007 43.1576 76.2686 43.3262C76.1364 43.4902 76.0361 43.6794 75.9678 43.8936C75.904 44.1077 75.8721 44.3402 75.8721 44.5908ZM85.3604 49.1367C84.8135 49.1367 84.319 49.0479 83.877 48.8701C83.4395 48.6878 83.0658 48.4349 82.7559 48.1113C82.4505 47.7878 82.2158 47.4072 82.0518 46.9697C81.8877 46.5322 81.8057 46.0605 81.8057 45.5547V45.2812C81.8057 44.7025 81.89 44.1784 82.0586 43.709C82.2272 43.2396 82.4619 42.8385 82.7627 42.5059C83.0635 42.1686 83.4189 41.9111 83.8291 41.7334C84.2393 41.5557 84.6836 41.4668 85.1621 41.4668C85.6908 41.4668 86.1533 41.5557 86.5498 41.7334C86.9463 41.9111 87.2744 42.1618 87.5342 42.4854C87.7985 42.8044 87.9945 43.1849 88.1221 43.627C88.2542 44.069 88.3203 44.5566 88.3203 45.0898V45.7939H82.6055V44.6113H86.6934V44.4814C86.6842 44.1852 86.625 43.9072 86.5156 43.6475C86.4108 43.3877 86.249 43.1781 86.0303 43.0186C85.8115 42.859 85.5199 42.7793 85.1553 42.7793C84.8818 42.7793 84.638 42.8385 84.4238 42.957C84.2142 43.071 84.0387 43.2373 83.8975 43.4561C83.7562 43.6748 83.6468 43.9391 83.5693 44.249C83.4964 44.5544 83.46 44.8984 83.46 45.2812V45.5547C83.46 45.8783 83.5033 46.179 83.5898 46.457C83.681 46.7305 83.8132 46.9697 83.9863 47.1748C84.1595 47.3799 84.3691 47.5417 84.6152 47.6602C84.8613 47.7741 85.1416 47.8311 85.4561 47.8311C85.8525 47.8311 86.2057 47.7513 86.5156 47.5918C86.8255 47.4323 87.0944 47.2067 87.3223 46.915L88.1904 47.7559C88.0309 47.9883 87.8236 48.2116 87.5684 48.4258C87.3132 48.6354 87.001 48.8063 86.6318 48.9385C86.2673 49.0706 85.8434 49.1367 85.3604 49.1367ZM91.2598 43.0117V49H89.6123V41.6035H91.1846L91.2598 43.0117ZM93.5225 41.5557L93.5088 43.0869C93.4085 43.0687 93.2992 43.055 93.1807 43.0459C93.0667 43.0368 92.9528 43.0322 92.8389 43.0322C92.5563 43.0322 92.3079 43.0732 92.0938 43.1553C91.8796 43.2327 91.6995 43.3467 91.5537 43.4971C91.4124 43.6429 91.3031 43.8206 91.2256 44.0303C91.1481 44.2399 91.1025 44.4746 91.0889 44.7344L90.7129 44.7617C90.7129 44.2969 90.7585 43.8662 90.8496 43.4697C90.9408 43.0732 91.0775 42.7246 91.2598 42.4238C91.4466 42.123 91.679 41.8883 91.957 41.7197C92.2396 41.5511 92.5654 41.4668 92.9346 41.4668C93.0348 41.4668 93.1419 41.4759 93.2559 41.4941C93.3743 41.5124 93.4632 41.5329 93.5225 41.5557ZM97.4395 47.8242C97.7083 47.8242 97.9499 47.7718 98.1641 47.667C98.3828 47.5576 98.5583 47.4072 98.6904 47.2158C98.8271 47.0244 98.9023 46.8034 98.916 46.5527H100.468C100.459 47.0312 100.317 47.4665 100.044 47.8584C99.7705 48.2503 99.4082 48.5625 98.957 48.7949C98.5059 49.0228 98.0068 49.1367 97.46 49.1367C96.8949 49.1367 96.4027 49.041 95.9834 48.8496C95.5641 48.6536 95.2155 48.3848 94.9375 48.043C94.6595 47.7012 94.4499 47.307 94.3086 46.8604C94.1719 46.4137 94.1035 45.9352 94.1035 45.4248V45.1855C94.1035 44.6751 94.1719 44.1966 94.3086 43.75C94.4499 43.2988 94.6595 42.9023 94.9375 42.5605C95.2155 42.2188 95.5641 41.9521 95.9834 41.7607C96.4027 41.5648 96.8926 41.4668 97.4531 41.4668C98.0456 41.4668 98.5651 41.5853 99.0117 41.8223C99.4583 42.0547 99.8092 42.3805 100.064 42.7998C100.324 43.2145 100.459 43.6976 100.468 44.249H98.916C98.9023 43.9756 98.834 43.7295 98.7109 43.5107C98.5924 43.2874 98.4238 43.1097 98.2051 42.9775C97.9909 42.8454 97.7334 42.7793 97.4326 42.7793C97.0999 42.7793 96.8242 42.8477 96.6055 42.9844C96.3867 43.1165 96.2158 43.2988 96.0928 43.5312C95.9697 43.7591 95.8809 44.0166 95.8262 44.3037C95.776 44.5863 95.751 44.8802 95.751 45.1855V45.4248C95.751 45.7301 95.776 46.0264 95.8262 46.3135C95.8763 46.6006 95.9629 46.8581 96.0859 47.0859C96.2135 47.3092 96.3867 47.4893 96.6055 47.626C96.8242 47.7581 97.1022 47.8242 97.4395 47.8242ZM104.993 49.1367C104.446 49.1367 103.952 49.0479 103.51 48.8701C103.072 48.6878 102.699 48.4349 102.389 48.1113C102.083 47.7878 101.849 47.4072 101.685 46.9697C101.521 46.5322 101.438 46.0605 101.438 45.5547V45.2812C101.438 44.7025 101.523 44.1784 101.691 43.709C101.86 43.2396 102.095 42.8385 102.396 42.5059C102.696 42.1686 103.052 41.9111 103.462 41.7334C103.872 41.5557 104.316 41.4668 104.795 41.4668C105.324 41.4668 105.786 41.5557 106.183 41.7334C106.579 41.9111 106.907 42.1618 107.167 42.4854C107.431 42.8044 107.627 43.1849 107.755 43.627C107.887 44.069 107.953 44.5566 107.953 45.0898V45.7939H102.238V44.6113H106.326V44.4814C106.317 44.1852 106.258 43.9072 106.148 43.6475C106.044 43.3877 105.882 43.1781 105.663 43.0186C105.444 42.859 105.153 42.7793 104.788 42.7793C104.515 42.7793 104.271 42.8385 104.057 42.957C103.847 43.071 103.672 43.2373 103.53 43.4561C103.389 43.6748 103.28 43.9391 103.202 44.249C103.129 44.5544 103.093 44.8984 103.093 45.2812V45.5547C103.093 45.8783 103.136 46.179 103.223 46.457C103.314 46.7305 103.446 46.9697 103.619 47.1748C103.792 47.3799 104.002 47.5417 104.248 47.6602C104.494 47.7741 104.774 47.8311 105.089 47.8311C105.485 47.8311 105.839 47.7513 106.148 47.5918C106.458 47.4323 106.727 47.2067 106.955 46.915L107.823 47.7559C107.664 47.9883 107.456 48.2116 107.201 48.4258C106.946 48.6354 106.634 48.8063 106.265 48.9385C105.9 49.0706 105.476 49.1367 104.993 49.1367ZM114.379 43.0254V51.8438H112.731V41.6035H114.249L114.379 43.0254ZM119.198 45.2334V45.377C119.198 45.9147 119.134 46.4137 119.007 46.874C118.884 47.3298 118.699 47.7285 118.453 48.0703C118.212 48.4076 117.913 48.6696 117.558 48.8564C117.202 49.0433 116.792 49.1367 116.327 49.1367C115.867 49.1367 115.464 49.0524 115.117 48.8838C114.775 48.7106 114.486 48.4668 114.249 48.1523C114.012 47.8379 113.821 47.4688 113.675 47.0449C113.534 46.6165 113.433 46.1471 113.374 45.6367V45.083C113.433 44.5407 113.534 44.0485 113.675 43.6064C113.821 43.1644 114.012 42.7839 114.249 42.4648C114.486 42.1458 114.775 41.8997 115.117 41.7266C115.459 41.5534 115.858 41.4668 116.313 41.4668C116.778 41.4668 117.191 41.5579 117.551 41.7402C117.911 41.918 118.214 42.1732 118.46 42.5059C118.706 42.834 118.891 43.2305 119.014 43.6953C119.137 44.1556 119.198 44.6683 119.198 45.2334ZM117.551 45.377V45.2334C117.551 44.8916 117.519 44.5749 117.455 44.2832C117.391 43.987 117.291 43.7272 117.154 43.5039C117.018 43.2806 116.842 43.1074 116.628 42.9844C116.418 42.8568 116.165 42.793 115.869 42.793C115.577 42.793 115.327 42.8431 115.117 42.9434C114.908 43.0391 114.732 43.1735 114.591 43.3467C114.45 43.5199 114.34 43.7227 114.263 43.9551C114.185 44.1829 114.131 44.4313 114.099 44.7002V46.0264C114.153 46.3545 114.247 46.6553 114.379 46.9287C114.511 47.2021 114.698 47.4209 114.939 47.585C115.186 47.7445 115.5 47.8242 115.883 47.8242C116.179 47.8242 116.432 47.7604 116.642 47.6328C116.851 47.5052 117.022 47.3298 117.154 47.1064C117.291 46.8786 117.391 46.6165 117.455 46.3203C117.519 46.0241 117.551 45.7096 117.551 45.377ZM122.363 38.5V49H120.709V38.5H122.363ZM128.618 47.2568V41.6035H130.272V49H128.714L128.618 47.2568ZM128.851 45.7188L129.404 45.7051C129.404 46.2018 129.35 46.6598 129.24 47.0791C129.131 47.4938 128.962 47.8561 128.734 48.166C128.507 48.4714 128.215 48.7106 127.859 48.8838C127.504 49.0524 127.078 49.1367 126.581 49.1367C126.221 49.1367 125.891 49.0843 125.59 48.9795C125.289 48.8747 125.029 48.7129 124.811 48.4941C124.596 48.2754 124.43 47.9906 124.312 47.6396C124.193 47.2887 124.134 46.8695 124.134 46.3818V41.6035H125.781V46.3955C125.781 46.6644 125.813 46.89 125.877 47.0723C125.941 47.25 126.027 47.3936 126.137 47.5029C126.246 47.6123 126.374 47.6898 126.52 47.7354C126.665 47.7809 126.82 47.8037 126.984 47.8037C127.454 47.8037 127.823 47.7126 128.092 47.5303C128.365 47.3434 128.559 47.0928 128.673 46.7783C128.791 46.4639 128.851 46.1107 128.851 45.7188ZM136.698 41.6035H138.195V48.7949C138.195 49.4603 138.054 50.0254 137.771 50.4902C137.489 50.9551 137.095 51.3083 136.589 51.5498C136.083 51.7959 135.497 51.9189 134.832 51.9189C134.549 51.9189 134.235 51.8779 133.889 51.7959C133.547 51.7139 133.214 51.5817 132.891 51.3994C132.572 51.2217 132.305 50.987 132.091 50.6953L132.863 49.7246C133.128 50.0391 133.419 50.2692 133.738 50.415C134.057 50.5609 134.392 50.6338 134.743 50.6338C135.121 50.6338 135.443 50.5632 135.707 50.4219C135.976 50.2852 136.183 50.0824 136.329 49.8135C136.475 49.5446 136.548 49.2165 136.548 48.8291V43.2783L136.698 41.6035ZM131.674 45.3838V45.2402C131.674 44.6797 131.742 44.1693 131.879 43.709C132.016 43.2441 132.212 42.8454 132.467 42.5127C132.722 42.1755 133.032 41.918 133.396 41.7402C133.761 41.5579 134.174 41.4668 134.634 41.4668C135.112 41.4668 135.52 41.5534 135.857 41.7266C136.199 41.8997 136.484 42.1481 136.712 42.4717C136.94 42.7907 137.118 43.1735 137.245 43.6201C137.377 44.0622 137.475 44.5544 137.539 45.0967V45.5547C137.48 46.0833 137.38 46.5664 137.238 47.0039C137.097 47.4414 136.91 47.8197 136.678 48.1387C136.445 48.4577 136.158 48.7038 135.816 48.877C135.479 49.0501 135.08 49.1367 134.62 49.1367C134.169 49.1367 133.761 49.0433 133.396 48.8564C133.036 48.6696 132.727 48.4076 132.467 48.0703C132.212 47.7331 132.016 47.3366 131.879 46.8809C131.742 46.4206 131.674 45.9215 131.674 45.3838ZM133.321 45.2402V45.3838C133.321 45.721 133.353 46.0355 133.417 46.3271C133.485 46.6188 133.588 46.8763 133.725 47.0996C133.866 47.3184 134.044 47.4915 134.258 47.6191C134.477 47.7422 134.734 47.8037 135.03 47.8037C135.418 47.8037 135.734 47.7217 135.98 47.5576C136.231 47.3936 136.423 47.1725 136.555 46.8945C136.691 46.612 136.787 46.2975 136.842 45.9512V44.7139C136.814 44.445 136.757 44.1943 136.671 43.9619C136.589 43.7295 136.477 43.5267 136.336 43.3535C136.195 43.1758 136.017 43.0391 135.803 42.9434C135.589 42.8431 135.336 42.793 135.044 42.793C134.748 42.793 134.49 42.8568 134.271 42.9844C134.053 43.112 133.873 43.2874 133.731 43.5107C133.595 43.734 133.492 43.9938 133.424 44.29C133.355 44.5863 133.321 44.903 133.321 45.2402ZM141.668 41.6035V49H140.014V41.6035H141.668ZM139.904 39.6621C139.904 39.4115 139.986 39.2041 140.15 39.04C140.319 38.8714 140.551 38.7871 140.848 38.7871C141.139 38.7871 141.369 38.8714 141.538 39.04C141.707 39.2041 141.791 39.4115 141.791 39.6621C141.791 39.9082 141.707 40.1133 141.538 40.2773C141.369 40.4414 141.139 40.5234 140.848 40.5234C140.551 40.5234 140.319 40.4414 140.15 40.2773C139.986 40.1133 139.904 39.9082 139.904 39.6621ZM145.106 43.1826V49H143.459V41.6035H145.011L145.106 43.1826ZM144.812 45.0283L144.279 45.0215C144.284 44.4974 144.357 44.0166 144.498 43.5791C144.644 43.1416 144.844 42.7656 145.1 42.4512C145.359 42.1367 145.669 41.8952 146.029 41.7266C146.389 41.5534 146.79 41.4668 147.232 41.4668C147.588 41.4668 147.909 41.5169 148.196 41.6172C148.488 41.7129 148.736 41.8701 148.941 42.0889C149.151 42.3076 149.311 42.5924 149.42 42.9434C149.529 43.2897 149.584 43.7158 149.584 44.2217V49H147.93V44.2148C147.93 43.8594 147.877 43.5791 147.772 43.374C147.672 43.1644 147.524 43.0163 147.328 42.9297C147.137 42.8385 146.897 42.793 146.61 42.793C146.328 42.793 146.075 42.8522 145.852 42.9707C145.628 43.0892 145.439 43.251 145.284 43.4561C145.134 43.6611 145.018 43.8981 144.936 44.167C144.854 44.4359 144.812 44.723 144.812 45.0283Z" fill="#004B93"/>
</svg>
