<svg id="Layer_1" data-name="Layer 1" xmlns="http://www.w3.org/2000/svg" viewBox="0 0 512 512"><defs><style>.cls-1{fill:#004992;}.cls-2{fill:#fff;}</style></defs><title>ppl</title><path class="cls-1" d="M512,472a40,40,0,0,1-40,40H40A40,40,0,0,1,0,472V40A40,40,0,0,1,40,0H472a40,40,0,0,1,40,40Z"/><path class="cls-2" d="M474.83,211.16a18.25,18.25,0,0,0-5.07,1.85,19.86,19.86,0,0,0-4.94,4.81,19.61,19.61,0,0,0-1.25,2.73,8.9,8.9,0,0,0-.6,4.13,9.45,9.45,0,0,0,.62,4.22,14.69,14.69,0,0,0,24.09,5.23,13.41,13.41,0,0,0,3.41-5.31,9.15,9.15,0,0,0,.59-4,10.1,10.1,0,0,0-.47-3.94A14.44,14.44,0,0,0,478,211.06,21.07,21.07,0,0,0,474.83,211.16Zm5.58,1.51a13,13,0,0,1,9.59,9.09,14.23,14.23,0,0,1,.32,2.92,11.43,11.43,0,0,1-3.81,8.69,12.88,12.88,0,0,1-9,3.63,13.11,13.11,0,0,1-9.8-4,11.06,11.06,0,0,1-3.32-7.71,10.52,10.52,0,0,1,1.36-6.26,13.52,13.52,0,0,1,8.41-6.38A18.67,18.67,0,0,1,480.41,212.67Z"/><path class="cls-2" d="M472.94,218l-2.52,7.35c-1.12,3.29-2,6.08-2,6.2s.38.24,1.06.24c1.26,0,1.11.22,2.37-3.57l.94-2.89H476c5,0,5.3.24,4.4,3.41-.27,1-.55,2-.61,2.39l-.11.66h1.47a5.37,5.37,0,0,0,1.49-.1,1.43,1.43,0,0,0-.26-.48c-.19-.31-.12-.79.35-2.47.76-2.64.76-3.35,0-3.93l-.53-.45.91-.52a5.88,5.88,0,0,0,2.6-3.31c.51-1.68.13-2.61-1.41-3.4-.66-.34-1.32-.38-5.85-.44l-5.11-.06Zm10.07.93c1,.91,0,3.35-1.64,4.12-.85.42-1.23.46-4.43.46s-3.49,0-3.41-.36c.07-.18.43-1.33.84-2.52l.72-2.18,3.77.06C482.14,218.53,482.69,218.57,483,218.89Z"/><path class="cls-2" d="M62,212.63s-.27,1-.64,2.16-.63,2.24-.63,2.38,7.66.25,38.16.21l38.19-.06.69-2.33c.38-1.27.7-2.34.7-2.38s-17.21,0-38.23,0S62,212.59,62,212.63Z"/><path class="cls-2" d="M155.6,212.81c-.11.27-.84,2.63-10.25,33.78-4.45,14.68-6.9,22.72-7.9,26-.11.34.79.36,16.89.36h17l3.3-11,3.3-11h16c20.79,0,24.63-.22,31.1-1.73,14.63-3.44,24.62-11.53,24.6-19.95a13.64,13.64,0,0,0-3.4-8.3c-3.71-4.16-9.5-6.7-18.22-8C225.67,212.59,155.72,212.47,155.6,212.81ZM212,224.28c3.54.63,6,3.09,6,5.94a7.93,7.93,0,0,1-1.53,4.36c-1.37,2-3.65,3.41-7,4.28-1.62.44-2,.44-14.7.52-11.94.06-13.05,0-13.05-.26s3.87-13.36,4.36-14.8C186.18,224,210.17,224,212,224.28Z"/><path class="cls-2" d="M269,212.71c-.1.16-.7,2.14-6.43,21.06-1.83,6.06-4.43,14.64-5.79,19.08s-2.71,9-3.05,10.1-1.09,3.65-1.7,5.65-1.18,3.8-1.22,4,.77.34,16.89.3l17-.06.85-2.73,3.3-10.9,2.47-8.18,18.53-.12c20-.12,20.9-.18,26.5-1.29a52,52,0,0,0,12.59-4,33.3,33.3,0,0,0,9.61-6.66c.4-.44.78-.85.85-.91a19.78,19.78,0,0,0,2.77-4.68,11.09,11.09,0,0,0-.28-8.83,16.1,16.1,0,0,0-6.48-7c-3.57-2.26-7.75-3.62-14-4.57C339.56,212.67,269.12,212.45,269,212.71Zm57.89,11.95a7.94,7.94,0,0,1,4.16,3.92c.93,3.27-1.39,7.43-5.18,9.19a23.67,23.67,0,0,1-3.07,1.11c-1.61.42-2.06.44-14.52.5-7.07,0-13,0-13.14,0s.19-1.57,1.34-5.31c.87-2.86,1.87-6.15,2.21-7.33s.69-2.24.73-2.38,2.62-.24,13.14-.2l13.06.06Z"/><path class="cls-2" d="M379.39,221.9l-11.84,39.19c-1.94,6.4-3.54,11.71-3.54,11.75s19.58.1,43.52.1H451l2.24-7.43c1.23-4.08,2.23-7.51,2.23-7.61s-9-.24-26.43-.3l-26.45-.11,1.13-3.73c.61-2.06,2.25-7.41,3.62-11.91s3-10,3.72-12.32c1.11-3.73,4.75-15.73,5-16.62.11-.32-.79-.34-16.89-.34h-17Z"/><path class="cls-2" d="M57.55,227.35c-.85,2.81-1.53,5.17-1.53,5.27s17.19.12,38.17.1l38.19-.06,1.53-5c.85-2.78,1.54-5.11,1.56-5.21s-17.19-.14-38.19-.14H59.09Z"/><path class="cls-2" d="M54.47,237.75c-.07.1-.79,2.38-1.6,5.11s-1.75,5.71-2,6.66a5.86,5.86,0,0,0-.36,1.88c.09.08,17.25.12,38.15.1l38-.06.27-.81c.43-1.21,3.88-12.66,3.88-12.86S54.59,237.55,54.47,237.75Z"/><path class="cls-2" d="M48.57,257c-.15.49-.58,1.94-1,3.23-1.11,3.62-2.16,7.09-2.28,7.53-.05.22-.41,1.38-.77,2.55s-.66,2.24-.66,2.38,9.69.2,38.17.18l38.19-.06.55-1.92c.56-1.82,4.13-13.63,4.37-14.39.1-.33-1.81-.35-38.13-.35H48.8Z"/><path class="cls-2" d="M77.32,286.49a11.72,11.72,0,0,0-7.73,5.43,14.53,14.53,0,0,0-1.86,6.24,4.69,4.69,0,0,0,2.9,4.76c1.15.57,1.43.61,3.49.59a7.35,7.35,0,0,0,3.73-.61c3.69-1.49,5.92-4.07,7.14-8.21a8.76,8.76,0,0,0,0-5.29C83.88,287.07,80.81,285.9,77.32,286.49Zm2.77,3.17a2.87,2.87,0,0,1,1.55,3,11.37,11.37,0,0,1-1.44,4.84c-2,3.25-6.61,4.3-8.23,1.86-.36-.55-.42-.91-.34-2.36.17-3.43,2.15-6.5,4.75-7.37A5.58,5.58,0,0,1,80.09,289.66Z"/><path class="cls-2" d="M122.73,286.49c-3.51.58-6.24,3.29-6.3,6.24-.05,2.08.68,2.6,5.11,3.71,2.57.65,3.49,1.09,3.49,1.7a2.9,2.9,0,0,1-1.51,2.08c-1.66.79-4.54.68-5.39-.2a2.15,2.15,0,0,1-.41-1.11l0-.73h-3.47l-.13.89a3.68,3.68,0,0,0,2.37,4,12.22,12.22,0,0,0,6,.28,8.28,8.28,0,0,0,4.16-2.12,5.87,5.87,0,0,0,2-3.86c.17-2.28-.6-2.87-5.05-4-3.49-.86-3.85-1.13-3.45-2.34.49-1.39,2.71-2.22,4.71-1.75,1.17.26,1.7.82,1.7,1.81v.61h1.71c1.64,0,1.7,0,1.83-.53a4.59,4.59,0,0,0-.64-3.21C128.31,286.61,125.56,286,122.73,286.49Z"/><path class="cls-2" d="M138,286.49c-3.38.54-6.07,3.09-6.34,5.95-.2,2.23.78,3,5.17,4,2.88.67,3.3.91,3.3,1.82,0,1.33-1.27,2.26-3.34,2.46-2.28.23-3.9-.58-3.9-2v-.58h-3.39l-.14.71a3.36,3.36,0,0,0,1,3.29c1.83,1.73,6.28,1.94,9.52.44,3-1.41,5-5.09,3.75-7.11-.54-.82-1.84-1.41-5-2.18s-3.49-1-3.32-2,.85-1.57,2.15-1.95c2.17-.67,4.37.2,4.37,1.71v.63h3.38l.15-.91a3.76,3.76,0,0,0-2.51-4A11.91,11.91,0,0,0,138,286.49Z"/><path class="cls-2" d="M161,286.47c-4.71.83-8.05,4.08-9.4,9.08-1.23,4.65.69,7.68,5.14,8a10.83,10.83,0,0,0,5.24-.93,9,9,0,0,0,3.45-2.44c2.77-2.75,4.28-8.22,3-10.88a5.18,5.18,0,0,0-2.94-2.53A11.11,11.11,0,0,0,161,286.47Zm2.51,3.11a2.68,2.68,0,0,1,1.56,2c.51,1.77-.73,5.51-2.33,7.1-2,2-4.68,2.61-6.54,1.46-.95-.59-1.23-1.44-1.1-3.23.23-3.4,2.21-6.44,4.75-7.29A6.16,6.16,0,0,1,163.54,289.58Z"/><path class="cls-2" d="M287.4,286.57c-4.16.89-7.22,4-8.59,8.64-1.21,4.12,0,7.25,3.11,8.14a10,10,0,0,0,8.61-2,13.58,13.58,0,0,0,2.64-3.11l.36-.65h-3.6l-.47.71a5,5,0,0,1-5.85,2c-.83-.32-1.11-.77-1.37-2-.38-1.94.83-5.47,2.47-7.19a5.36,5.36,0,0,1,5.43-1.51c.88.36,1.13.68,1.35,1.79l.15.75h3.57V291a3.75,3.75,0,0,0-1.38-3.25C292.4,286.47,290,286,287.4,286.57Z"/><path class="cls-2" d="M361.35,286.49a11.45,11.45,0,0,0-9.27,8.5,10,10,0,0,0-.1,5.53c1,2.34,4.15,3.53,7.71,2.91a11.89,11.89,0,0,0,9.52-11.71,5.11,5.11,0,0,0-.38-2.42,5.4,5.4,0,0,0-4.29-2.81A7.15,7.15,0,0,0,361.35,286.49Zm3,3.41a3.13,3.13,0,0,1,1.17,2.67,10.25,10.25,0,0,1-2.34,6.07c-1.92,2.16-5.47,2.71-7,1.05-.85-.93-1-2.1-.57-4,.68-2.85,2.23-5,4.28-6C361.33,289.09,363.5,289.15,364.33,289.9Z"/><path class="cls-2" d="M378.77,286.57a12.32,12.32,0,0,0-8.6,8c-.71,1.9-.73,5.19-.05,6.41,1.71,3,6.59,3.57,10.08,1.19a6.91,6.91,0,0,1,1.19-.73c.09,0,.09.4,0,.91l-.15.91h1.18a3.22,3.22,0,0,0,1.25-.16c.07-.11.64-1.94,1.3-4.1s1.24-4.08,1.3-4.28-.15-.35-3.51-.35h-3.62l-.37,1.15c-.19.65-.4,1.28-.44,1.42s.44.26,2,.3l2.08.06-1,1.11a5.81,5.81,0,0,1-4.56,2.28c-2.41,0-3.52-1-3.52-3.21a10.87,10.87,0,0,1,1.41-4.82,8.09,8.09,0,0,1,3.39-2.95,5.76,5.76,0,0,1,3.89-.2,2.87,2.87,0,0,1,1.32,2c0,.44.05.46,1.88.4l1.85-.06.07-.65a4.6,4.6,0,0,0-3.11-4.4A11.85,11.85,0,0,0,378.77,286.57Z"/><path class="cls-2" d="M400.92,286.55a7.57,7.57,0,0,0-3.74,1.74,6.22,6.22,0,0,0-2.22,4c-.23,2.31.6,3,4.41,3.94a28.16,28.16,0,0,1,3.17.93c.92.38.94.38.81,1.25a1.9,1.9,0,0,1-.79,1.39,5.86,5.86,0,0,1-5,.67c-1-.38-1.32-.83-1.35-1.67v-.65h-1.68c-1.89,0-1.94,0-1.94,1.55,0,1.86,1.09,3,3.3,3.6a10.85,10.85,0,0,0,9-1.8,8,8,0,0,0,1.54-2c1.34-2.56,1-4.22-.92-5.13a50.06,50.06,0,0,0-6.2-1.71c-.27,0-.74-.71-.74-1.11,0-1.46,1.4-2.39,3.64-2.41,1.9,0,2.62.43,2.7,1.66l.07.85h3.6l0-.77c.06-1.78-.19-2.58-1.15-3.41C406.21,286.47,403.35,286,400.92,286.55Z"/><path class="cls-2" d="M437.35,286.57a10.87,10.87,0,0,0-6.76,4.8c-1.89,2.91-2.72,6.77-2,9a5.2,5.2,0,0,0,3.56,3.05,10.11,10.11,0,0,0,10.4-4.24,7.55,7.55,0,0,0,.87-1.41,8.72,8.72,0,0,0-3.62,0c0,.46-2,2.24-2.88,2.56-1.21.42-3.11.32-3.75-.24-1.4-1.19-1.36-3.78.13-6.87,1.41-2.91,4.18-4.48,6.56-3.73a2,2,0,0,1,1.58,1.81l.13.83h1.76c1.73,0,1.79,0,1.92-.5.49-1.84-1-4.16-3.13-4.93A11.63,11.63,0,0,0,437.35,286.57Z"/><path class="cls-2" d="M39.66,287c-.15.27-3.81,12.14-4.9,15.85-.08.33.11.37,1.71.37h1.79l.34-1.07c.19-.57.61-1.94.93-3l.58-2,3.11-.06c2.79-.06,3.22-.12,4.17-.55a7.76,7.76,0,0,0,3.52-3.51c1.55-3,.62-5.69-2.15-6.22-.51-.08-2.73-.16-4.92-.18C40.26,286.67,39.83,286.71,39.66,287Zm7.5,2.93c.66.28.85.77.66,1.74-.41,2.08-1.43,2.66-4.66,2.66H40.92l.3-.87c.17-.46.49-1.51.74-2.32l.45-1.45h2.11A10.27,10.27,0,0,1,47.16,289.94Z"/><path class="cls-2" d="M54.87,286.89c-.28.79-4.81,16-4.81,16.18a4.1,4.1,0,0,0,1.72.12l1.75-.06,1-3.19,1-3.21,2.72.08a8.14,8.14,0,0,1,3,.32c.37.34.28,1.43-.25,3.35a12.63,12.63,0,0,0-.43,2.18v.57h2c2.06,0,2.23-.08,1.79-.77-.2-.28-.11-.81.32-2.3.72-2.53.72-3.66,0-4.32s-.64-.69-.28-.69,2.09-1.35,2.73-2.36a4.33,4.33,0,0,0,.78-2.32,2.85,2.85,0,0,0-1.66-3.19c-.91-.49-1.06-.51-6.09-.57C55.91,286.65,54.93,286.67,54.87,286.89Zm8.84,3.23c.85.81.23,2.63-1.15,3.42-.58.34-1.09.4-3.47.4H56.28l.66-2.12.66-2.12h2.83C63,289.7,63.3,289.74,63.71,290.12Z"/><path class="cls-2" d="M89.52,286.91c-.19.22-5,15.81-5,16.2a6.94,6.94,0,0,0,1.77.12H88.1l1-3.44,1-3.43,3.82,0,3.83-.06.38-1.11c.66-2,.92-1.82-3.32-1.82a20.71,20.71,0,0,1-3.73-.16c0-.08.24-.85.52-1.69a5.83,5.83,0,0,0,.38-1.68,43.57,43.57,0,0,1,4.37-.1h4.47l.42-1.37a4.5,4.5,0,0,0,.34-1.52c0-.08-2.74-.14-6-.14C91.16,286.67,89.67,286.73,89.52,286.91Z"/><path class="cls-2" d="M103.31,287.11c-.11.27-1.22,3.82-2.45,7.94s-2.3,7.63-2.37,7.81c-.11.35.3.37,6.46.37h6.58l.38-1.17c.21-.63.43-1.32.47-1.52s-.21-.34-4.69-.34c-2.64,0-4.81,0-4.81-.06s.28-.95.62-2.06l.59-2,4.26-.06,4.26,0,.37-1.17a10.64,10.64,0,0,0,.34-1.42c0-.18-1.09-.24-4.16-.24-2.28,0-4.15,0-4.15-.06s.23-.77.51-1.65l.49-1.62,4.6-.06,4.6,0,.43-1.35a4.7,4.7,0,0,0,.32-1.52c-.07-.08-2.9-.16-6.29-.16h-6.15Z"/><path class="cls-2" d="M149,286.91c-.13.14-1,2.71-1.85,5.72s-2,6.54-2.39,7.87S144,303,144,303.07a4.72,4.72,0,0,0,1.77.16h1.76l.92-3c.49-1.64,1.6-5.29,2.45-8.12a50.31,50.31,0,0,0,1.47-5.31A7.58,7.58,0,0,0,149,286.91Z"/><path class="cls-2" d="M172.74,287.11c-.17.41-3,9.47-4.28,14-.23.76-.47,1.57-.53,1.75s.06.37,1.57.37,1.71-.06,1.81-.37c1.79-5.93,3.37-11,3.43-11.1s.49,1.07,2.26,7l1.36,4.51,1.82-.06,1.83-.06,2.38-7.88c1.32-4.34,2.39-8,2.41-8.24s-.21-.34-1.43-.34a6,6,0,0,0-1.68.16,2.29,2.29,0,0,0-.45.95c-.53,1.9-3,10.06-3.13,10.14s-.4-.83-1.4-4.28c-.35-1.11-.94-3.11-1.35-4.45l-.72-2.42-1.85-.06C173,286.65,172.93,286.67,172.74,287.11Z"/><path class="cls-2" d="M193.47,288.12c-.54.81-1.58,2.35-2.3,3.4s-2.3,3.39-3.54,5.19-2.66,3.93-3.22,4.74a11.78,11.78,0,0,0-1,1.62,4.64,4.64,0,0,0,1.77.16H187l.73-1.07c.4-.57.91-1.36,1.12-1.72l.39-.65h6.52v3.44h1.89a6.36,6.36,0,0,0,2-.16c.09-.17-.87-14.74-1-15.75l-.11-.65h-4Zm2,7,0,1.88H193.4a10.08,10.08,0,0,1-2.13-.12c0-.08.9-1.5,2-3.17l2-3.05.13,1.31C195.43,292.65,195.49,294.08,195.51,295.09Z"/><path class="cls-2" d="M206.08,286.91c-.05.14-.6,2-1.26,4.2-1.81,6.12-3.52,11.73-3.66,11.94a42.8,42.8,0,0,0,6.11.14l6.22-.06.38-1.32c.21-.72.38-1.37.41-1.47a32.42,32.42,0,0,0-4.29-.14c-4,0-4.26,0-4.15-.37.32-1,3-9.85,3.43-11.28a6.08,6.08,0,0,0,.36-1.76A8.75,8.75,0,0,0,206.08,286.91Z"/><path class="cls-2" d="M233.76,286.81a12.36,12.36,0,0,0-.91,2.49c-.36,1.27-1.43,4.86-2.39,8s-1.7,5.71-1.7,5.8a5.27,5.27,0,0,0,1.77.16h1.77l.59-2,.9-3,.32-1.05h3c2.75,0,3.09,0,4.11-.51a7.3,7.3,0,0,0,4.34-6.15c.07-1.34,0-1.6-.42-2.22-.94-1.36-1.62-1.5-6.67-1.58A42.15,42.15,0,0,0,233.76,286.81Zm7.46,3.13c.68.28.85.89.55,1.92a3.4,3.4,0,0,1-1.72,2.18c-.87.42-4.9.42-4.9,0a40.41,40.41,0,0,1,1.17-4.1C236.45,289.62,240.45,289.6,241.22,289.94Z"/><path class="cls-2" d="M253.66,286.91c-.13.14-.83,1.15-1.53,2.22s-3.09,4.59-5.27,7.76-4,5.91-4.11,6.07.2.27,1.75.27h1.9l1.12-1.72,1.11-1.72h6.29l.12.63a11.08,11.08,0,0,1,.13,1.72v1.09H259v-.57c0-1.25-1.08-15.65-1.19-15.81S254,286.63,253.66,286.91Zm1.15,9.9a7.23,7.23,0,0,1-2.13.16c-1.79,0-2,0-1.9-.33s2.79-4.58,3.41-5.43l.45-.6.13,3C254.83,295.29,254.85,296.73,254.81,296.81Z"/><path class="cls-2" d="M265.42,287.13a14.11,14.11,0,0,0-.45,1.38c-.13.48-.38,1.29-.53,1.79-.34,1-3.2,10.48-3.62,12l-.28,1h3.56l.34-1.17c.19-.63.38-1.3.42-1.46s.34-1.09.64-2.08l.56-1.75h2.3a15.56,15.56,0,0,1,3,.22c.57.18.66.32.66.93a9.69,9.69,0,0,1-.34,2,20.44,20.44,0,0,0-.49,2.28l-.17,1.07h2a10.93,10.93,0,0,0,2.08-.12c.07-.06,0-.31-.12-.51s-.15-.81.34-2.56c.74-2.79.74-3.54,0-4.2-.49-.43-.54-.55-.28-.69a1.08,1.08,0,0,1,.47-.2,4.72,4.72,0,0,0,1-.75,5.44,5.44,0,0,0,2-4,2.79,2.79,0,0,0-1.79-3c-.89-.43-1.3-.45-6-.51l-5.07-.08Zm8.92,3c.55.53.53,1.11,0,2.22-.75,1.38-1.43,1.62-4.69,1.62a24.22,24.22,0,0,1-2.72-.08s.08-.32.19-.65.4-1.25.66-2.06l.45-1.45H271C273.64,289.7,274,289.74,274.34,290.1Z"/><path class="cls-2" d="M298.6,287.22c-.13.32-.49,1.47-.83,2.58-.68,2.3-3.79,12.54-4,13.06-.11.35.3.37,6.45.37h6.58l.39-1.17c.21-.63.42-1.32.47-1.52s-.22-.34-4.69-.34c-2.64,0-4.81,0-4.81-.06s.27-.95.61-2.06l.6-2,4.26-.06,4.26,0,.36-1.17a10.64,10.64,0,0,0,.34-1.42c0-.18-1.08-.24-4.13-.24h-4.13l.47-1.67.47-1.66,4.62-.06,4.6,0,.45-1.39c.23-.75.42-1.44.42-1.52s-2.83-.12-6.28-.12h-6.28Z"/><path class="cls-2" d="M313.87,287c-.76,2.41-4.81,15.93-4.81,16.12s2.75.08,6.11.06l6.09-.06.41-1.32a14.31,14.31,0,0,0,.38-1.47,32.32,32.32,0,0,0-4.28-.14c-4,0-4.26,0-4.15-.37.34-1,1.3-4.17,1.74-5.69.28-.95.88-2.95,1.35-4.44a19.37,19.37,0,0,0,.74-2.87,5.39,5.39,0,0,0-1.79-.16C314.26,286.67,314,286.73,313.87,287Z"/><path class="cls-2" d="M341.5,286.91a7.68,7.68,0,0,0-.6,1.58c-.21.72-.64,2.18-1,3.23-.89,2.95-3.38,11.28-3.38,11.41s2.74.08,6.11.06l6.11-.06.38-1.22a9,9,0,0,0,.39-1.47c0-.18-1-.24-4.28-.24-4.14,0-4.26,0-4.14-.41.88-2.58,3.88-12.86,3.8-13A7.3,7.3,0,0,0,341.5,286.91Z"/><path class="cls-2" d="M391,286.83c-.09.14-4,12.9-4.77,15.65l-.24.77,1.83-.06,1.84-.06,2.4-8c1.34-4.38,2.43-8.1,2.43-8.24S391.17,286.55,391,286.83Z"/><path class="cls-2" d="M410.93,286.91a16.77,16.77,0,0,0-.91,2.63,9.72,9.72,0,0,0,2.55.16,10.92,10.92,0,0,1,2.56.16c0,.08-.85,3-1.92,6.46s-1.91,6.46-1.91,6.62.32.29,1.74.25l1.75-.06,2-6.71,2-6.7,2.64-.06,2.64-.06.41-1.31a14.91,14.91,0,0,0,.38-1.48c0-.08-3.11-.14-6.9-.14C412.72,286.67,411.06,286.73,410.93,286.91Z"/><path class="cls-2" d="M425.91,287c-.34,1.11-4.6,15.21-4.71,15.65l-.15.57h3.6l2.45-8.14c1.36-4.46,2.43-8.18,2.37-8.28a6.24,6.24,0,0,0-1.77-.14C426.29,286.67,426,286.73,425.91,287Z"/></svg>