<svg width="119" height="118" viewBox="0 0 119 118" fill="none" xmlns="http://www.w3.org/2000/svg">
<g opacity="0.15">
<path d="M54.3112 30.5728L84.7055 12.5149L94.2241 18.013L63.8298 36.0537L54.3112 30.5728Z" fill="#405A70"/>
<path d="M49.38 27.7209L68.4173 38.7172H49.38V27.7209Z" fill="#405A70"/>
</g>
<path opacity="0.15" d="M61.5446 106.035V79.6783L54.8094 69.5583V102.203L61.5446 106.035Z" fill="#405A70"/>
<path opacity="0.15" d="M119 78.4066L63.9844 46.6206L8.23 78.7846L19.9479 85.5542L0 97.0659L35.7893 117.77L55.7544 106.241L63.2628 110.571L119 78.4066Z" fill="#405A70"/>
<path d="M61.5445 55.572L20.8069 32.0503V82.5128L61.5445 106.034V55.572Z" fill="#DEBC8D"/>
<path d="M61.5618 55.572L110.444 27.3425V77.8565L61.5618 106.086V55.572Z" fill="#B98E62"/>
<path d="M20.8069 32.1021L69.7059 3.88989L110.444 27.3428L61.5618 55.5723L20.8069 32.1021Z" fill="#EDD5B7"/>
<path d="M44.1051 45.5037V54.6615L36.7342 50.452V41.2942L44.1051 45.5037Z" fill="#EDD5B7"/>
<path d="M92.901 17.2401L44.1051 45.5039L36.7342 41.2944L85.6503 13.0649L92.901 17.2401Z" fill="#F2E6D5"/>
<path d="M20.8069 32.0332L61.5617 55.5549L66.5272 52.6855L25.7208 29.1982L20.8069 32.0332Z" fill="#F2E6D5"/>
<path d="M64.7231 6.74204L105.461 30.2293L110.426 27.3428L69.6886 3.88989L64.7231 6.74204Z" fill="#F2E6D5"/>
<path d="M96.9044 29.5591L86.4752 35.5727L78.2624 30.8821L88.8462 24.8857L96.9044 29.5591Z" fill="white"/>
<path opacity="0.4" d="M40.2909 43.322L89.1039 15.23" stroke="#B98E62" stroke-width="0.343633" stroke-linecap="round" stroke-linejoin="round"/>
<path d="M7.66296 64.1287L35.9439 80.434V113.096L7.66296 96.7738V64.1287Z" fill="#9AB7D4"/>
<path d="M7.66296 68.1831L35.9439 84.6431V98.5946L7.66296 82.1518V68.1831Z" fill="#E4EDF4"/>
<path d="M54.8094 69.5579L35.944 80.4338V113.096L54.8094 102.203V69.5579Z" fill="#6693BE"/>
<path d="M7.66302 64.1112L35.944 80.4338L54.8094 69.5578L26.4941 53.2524L7.66302 64.1112Z" fill="#CCDBE9"/>
<g style="mix-blend-mode:screen">
<path d="M14.3893 97.0362C15.5123 96.6847 15.9791 94.9829 15.432 93.2351C14.885 91.4873 13.5312 90.3554 12.4083 90.7069C11.2853 91.0583 10.8185 92.7601 11.3655 94.5079C11.9126 96.2557 13.2664 97.3877 14.3893 97.0362Z" fill="white"/>
</g>
<g style="mix-blend-mode:screen">
<path d="M31.852 107.084C32.9749 106.732 33.4417 105.031 32.8947 103.283C32.3476 101.535 30.9938 100.403 29.8709 100.754C28.748 101.106 28.2811 102.808 28.8282 104.556C29.3752 106.303 30.729 107.435 31.852 107.084Z" fill="white"/>
</g>
<path d="M35.944 84.6431V98.5775L45.3767 93.1309V79.2825L35.944 84.6431Z" fill="#B2C9DE"/>
<path fill-rule="evenodd" clip-rule="evenodd" d="M102.523 59.7816L102.059 61.6716L93.3136 66.7058L95.152 59.249L98.5711 57.2903L97.1966 62.8571L102.523 59.7816Z" fill="#004B93"/>
<path fill-rule="evenodd" clip-rule="evenodd" d="M77.472 72.2901L75.015 73.7162L75.479 71.8434L77.9187 70.4345C78.3655 70.1768 78.7778 70.297 78.6404 70.8297C78.5201 71.3107 78.1765 71.8434 77.472 72.3073M79.0184 68.596L72.4206 72.4104L70.5994 79.8672L74.0013 77.9085L74.6714 75.1766L77.9359 73.2866C79.7915 72.2214 81.4925 70.4173 81.819 69.1115C82.0939 68.0462 81.2863 67.3246 79.0355 68.6132" fill="#004B93"/>
<path fill-rule="evenodd" clip-rule="evenodd" d="M88.8462 65.7267L86.3892 67.1528L86.8532 65.28L89.3101 63.8711C89.7569 63.6134 90.1692 63.7508 90.0318 64.2663C89.9115 64.7474 89.5679 65.28 88.8462 65.7439M90.3926 62.0327L83.7948 65.847L81.9564 73.3038L85.3584 71.3451L86.0284 68.6132L89.2929 66.7232C91.1486 65.658 92.8495 63.8539 93.176 62.5481C93.4337 61.4828 92.6262 60.7612 90.3754 62.067" fill="#004B93"/>
<g opacity="0.15">
<path d="M52.3525 32.8067L85.6505 13.0479L95.1692 18.546L61.8712 38.3049L52.3525 32.8067Z" fill="#405A70"/>
<path d="M47.4214 29.9722L66.4586 40.9512H47.4214V29.9722Z" fill="#405A70"/>
</g>
<path d="M52.404 21.5016L89.1899 0.230713L98.7085 5.71166L61.9226 26.9825L52.404 21.5016Z" fill="#004B93"/>
<path d="M45.6688 17.6013L68.3142 30.6937H45.6688V17.6013Z" fill="#004B93"/>
</svg>
